<svg width="32" height="32" viewBox="0 0 32 32" fill="none" xmlns="http://www.w3.org/2000/svg">
<path d="M9.57143 24.3333H22.4286M9.57143 19.3333H22.4286M18.1437 1.00145C17.9389 1 17.7087 1 17.4458 1H7.85756C5.45734 1 4.25633 1 3.33956 1.36331C2.53316 1.68289 1.878 2.19245 1.46711 2.81966C1 3.5327 1 4.46682 1 6.33366V25.667C1 27.5338 1 28.4668 1.46712 29.1798C1.878 29.807 2.53316 30.3175 3.33956 30.637C4.25544 31 5.45501 31 7.85058 31L24.1495 31C26.545 31 27.7428 31 28.6587 30.637C29.4651 30.3175 30.1225 29.807 30.5333 29.1798C31 28.4675 31 27.5358 31 25.6726V11.5428C31 11.3384 30.9998 11.1592 30.9979 11M18.1437 1.00145C18.7554 1.00579 19.1408 1.02344 19.5104 1.09245C19.9477 1.17411 20.3668 1.30877 20.7503 1.49154C21.1826 1.69761 21.5539 1.98636 22.2946 2.5625L28.9921 7.77164C29.7333 8.34814 30.1019 8.6356 30.3669 8.97199C30.6019 9.27023 30.7757 9.59543 30.8807 9.93555C30.9694 10.223 30.9923 10.5242 30.9979 11M18.1437 1.00145L18.1429 5.66701C18.1429 7.53386 18.1429 8.46692 18.61 9.17996C19.0209 9.80716 19.676 10.3175 20.4824 10.637C21.3983 11 22.5979 11 24.9934 11H30.9979" stroke="white" stroke-width="2" stroke-linecap="round" stroke-linejoin="round"/>
</svg>
