<svg width="32" height="32" viewBox="0 0 32 32" fill="none" xmlns="http://www.w3.org/2000/svg">
<path d="M20.906 24.6797V26.2598C20.906 28.8778 18.7094 31.0001 15.9998 31.0001C13.2902 31.0001 11.0937 28.8778 11.0937 26.2598V24.6797M20.906 24.6797H11.0937M20.906 24.6797H26.7779C27.4034 24.6797 27.7177 24.6797 27.971 24.5972C28.4549 24.4395 28.8335 24.0724 28.9967 23.6049C29.0825 23.3592 29.0825 23.0546 29.0825 22.4454C29.0825 22.1788 29.0822 22.0455 29.0606 21.9184C29.0198 21.6783 28.9233 21.4506 28.7764 21.2529C28.6988 21.1484 28.6001 21.053 28.4056 20.8651L27.7685 20.2496C27.563 20.051 27.4475 19.7817 27.4475 19.5008V13.6191C27.4475 7.51053 22.3222 2.55853 15.9998 2.55854C9.67743 2.55856 4.5521 7.51055 4.5521 13.6191V19.5009C4.5521 19.7817 4.43639 20.051 4.23086 20.2496L3.59387 20.8651C3.39878 21.0536 3.3011 21.1483 3.22335 21.2529C3.07642 21.4506 2.9791 21.6783 2.9383 21.9184C2.91671 22.0455 2.91671 22.1788 2.91671 22.4454C2.91671 23.0546 2.91671 23.3592 3.00249 23.6049C3.1657 24.0724 3.54601 24.4395 4.02986 24.5972C4.28318 24.6797 4.59628 24.6797 5.22188 24.6797H11.0937M25.8425 1.00006C28.098 2.64226 29.875 4.82085 31.0002 7.32366M6.158 1.00006C3.90245 2.64226 2.12551 4.82085 1.00024 7.32366" stroke="white" stroke-width="2" stroke-linecap="round" stroke-linejoin="round"/>
</svg>
