<svg width="32" height="32" viewBox="0 0 32 32" fill="none" xmlns="http://www.w3.org/2000/svg">
<path d="M31.0001 25.4924V15.3082C31.0001 14.3273 30.9992 13.8366 30.8774 13.3802C30.7694 12.9757 30.5922 12.5929 30.3524 12.2471C30.0817 11.8567 29.7055 11.5331 28.9515 10.8872L19.9515 3.17732C18.5516 1.9781 17.8516 1.37879 17.0639 1.15072C16.3698 0.94976 15.63 0.94976 14.9358 1.15072C14.1487 1.37862 13.4498 1.97736 12.052 3.17477L3.04901 10.8872C2.29501 11.5331 1.91889 11.8567 1.64825 12.2471C1.40842 12.5929 1.22984 12.9757 1.12188 13.3802C1.00006 13.8366 1.00006 14.3273 1.00006 15.3082V25.4924C1.00006 27.2031 1.00006 28.058 1.28551 28.7327C1.66612 29.6323 2.39566 30.3479 3.31451 30.7205C4.00366 31 4.8773 31 6.62458 31C8.37186 31 9.24647 31 9.93561 30.7205C10.8545 30.3479 11.5838 29.6325 11.9644 28.7329C12.2499 28.0582 12.2501 27.2029 12.2501 25.4923V23.6566C12.2501 21.6289 13.929 19.9852 16.0001 19.9852C18.0711 19.9852 19.7501 21.6289 19.7501 23.6566V25.4923C19.7501 27.2029 19.7501 28.0582 20.0355 28.7329C20.4161 29.6325 21.1457 30.3479 22.0645 30.7205C22.7537 31 23.6273 31 25.3746 31C27.1219 31 27.9965 31 28.6856 30.7205C29.6045 30.3479 30.3338 29.6323 30.7144 28.7327C30.9999 28.058 31.0001 27.2031 31.0001 25.4924Z" stroke="white" stroke-width="2" stroke-linecap="round" stroke-linejoin="round"/>
</svg>
